<svg xmlns="http://www.w3.org/2000/svg" viewBox="0 0 100 100" width="100" height="100">
  <!-- Coin/medallion background -->
  <circle cx="50" cy="50" r="46" fill="#c8b89a" stroke="#a89070" stroke-width="2"/>
  <circle cx="50" cy="50" r="42" fill="#d4c4a8" stroke="#b8a080" stroke-width="1"/>

  <!-- Main stem -->
  <line x1="50" y1="78" x2="50" y2="22" stroke="#4a3a20" stroke-width="2.2" stroke-linecap="round"/>

  <!-- Top grain/seed -->
  <ellipse cx="50" cy="22" rx="5" ry="8" fill="#4a3a20" transform="rotate(-5 50 22)"/>

  <!-- Left leaves (alternating up the stem) -->
  <!-- Bottom left leaf -->
  <path d="M50 68 Q38 62 36 54 Q44 58 50 64" fill="#4a3a20"/>
  <!-- Bottom right leaf -->
  <path d="M50 62 Q62 56 64 48 Q56 52 50 58" fill="#4a3a20"/>
  <!-- Middle left leaf -->
  <path d="M50 52 Q39 46 37 38 Q45 43 50 49" fill="#4a3a20"/>
  <!-- Middle right leaf -->
  <path d="M50 46 Q61 40 63 32 Q55 37 50 43" fill="#4a3a20"/>
  <!-- Upper left leaf -->
  <path d="M50 37 Q41 32 40 25 Q47 29 50 34" fill="#4a3a20"/>
</svg>
